<?xml version="1.0" encoding="UTF-8"?><svg id="Layer_1" xmlns="http://www.w3.org/2000/svg" viewBox="0 0 192.59 75.3"><defs><style>.cls-1{fill:#ee2650;}</style></defs><g><path class="cls-1" d="m159.41,20.37s-9.42-21.26-.12-17c9.31,4.26.12,17,.12,17Z"/><path class="cls-1" d="m163.77,21.15s8.37-21.69,11.94-12.1-11.94,12.1-11.94,12.1Z"/><path class="cls-1" d="m166.36,8.41s-3.38-7.63-.04-6.1.04,6.1.04,6.1Z"/></g><g><path class="cls-1" d="m9.71,48.96c-1.29.12-2.4-.1-3.33-.64-.93-.55-1.67-1.35-2.23-2.41-.56-1.06-.88-2.29-.97-3.7-.12-1.75.19-3.51.95-5.28.76-1.77,2.03-3.29,3.82-4.57,1.79-1.27,4.15-2.04,7.07-2.31,2.05-.19,4.03-.22,5.96-.09,1.92.13,3.79.27,5.6.43,1.81.16,3.55.16,5.22,0,1.4-.13,2.68-.38,3.83-.75,1.15-.37,2.19-1.1,3.13-2.18.41.35.76.79,1.04,1.34.28.55.45,1.13.5,1.73.08.83-.06,1.65-.41,2.45-.35.8-.92,1.49-1.73,2.08-.81.59-1.91.95-3.31,1.08-1.18.11-2.39.09-3.65-.07-1.26-.15-2.63-.43-4.12-.83-1.49-.4-3.16-.89-5.01-1.49l-.15-.33c-.94-.29-1.78-.46-2.51-.49-.73-.03-1.53,0-2.4.08-2.16.2-3.79,1.05-4.9,2.54-1.11,1.5-1.56,3.5-1.37,6,.06,1.1.25,2.15.57,3.13.32.98.79,1.98,1.42,2.99-.42.38-.92.68-1.5.88-.57.21-1.09.33-1.54.37Zm7.14,24.06c-.91.08-1.76,0-2.55-.25-.79-.25-1.3-.65-1.54-1.21.54-.36.96-.78,1.26-1.26s.54-1.1.72-1.84c.18-.74.33-1.67.46-2.79l2.65-23.64c.18-1.77.63-3.37,1.34-4.8.71-1.42,1.7-2.6,2.97-3.54,1.27-.94,2.81-1.57,4.62-1.89l-3.88,34.02c-.16,1.54-.47,2.83-.91,3.87-.44,1.03-1.08,1.82-1.91,2.35-.83.54-1.91.86-3.24.99Zm14.01-20.44c-.65.06-1.4.08-2.26.06-.86-.02-1.75-.06-2.65-.13-.91-.07-1.79-.18-2.64-.33l.57-4.41c.65-.02,1.34-.05,2.09-.08.74-.03,1.49-.07,2.25-.12.76-.05,1.44-.1,2.05-.16.87-.08,1.73-.17,2.58-.27.85-.1,1.69-.22,2.52-.37.1.26.17.48.2.67.04.19.07.4.09.62.11,1.25-.27,2.28-1.15,3.09-.88.81-2.1,1.28-3.65,1.42Z"/><path class="cls-1" d="m49.12,68.4c-1.93.18-3.59.03-4.97-.43-1.38-.47-2.52-1.15-3.43-2.06-.91-.91-1.6-1.98-2.07-3.22-.48-1.24-.78-2.52-.9-3.85-.24-2.65-.14-5.24.32-7.77.46-2.53,1.28-4.84,2.46-6.94,1.18-2.1,2.77-3.82,4.74-5.17,1.98-1.35,4.39-2.15,7.23-2.41,1.97-.18,3.64-.04,5,.43,1.36.47,2.5,1.16,3.4,2.07.91.91,1.6,1.98,2.07,3.19.47,1.22.77,2.49.89,3.82.24,2.65.14,5.25-.32,7.8-.45,2.55-1.27,4.87-2.46,6.96-1.18,2.1-2.77,3.82-4.74,5.17-1.98,1.35-4.39,2.15-7.23,2.41Zm.71-3.51c1.1-.1,2.05-.6,2.85-1.49.8-.89,1.45-2.04,1.95-3.45.5-1.4.88-2.96,1.15-4.66.26-1.71.42-3.44.47-5.2.05-1.76,0-3.44-.15-5.03s-.54-2.81-1.18-3.76c-.64-.95-1.68-1.37-3.12-1.23-1.1.1-2.05.59-2.85,1.47-.8.88-1.46,2.02-1.98,3.42-.52,1.41-.91,2.96-1.18,4.67-.26,1.71-.41,3.45-.44,5.23-.03,1.78.03,3.47.18,5.06s.53,2.81,1.18,3.76c.64.95,1.68,1.37,3.12,1.23Z"/><path class="cls-1" d="m78.23,65.73c-1.93.18-3.59.03-4.97-.43-1.38-.47-2.52-1.15-3.43-2.06-.91-.91-1.6-1.98-2.07-3.22-.48-1.24-.78-2.52-.9-3.85-.24-2.65-.14-5.24.32-7.77.46-2.53,1.28-4.84,2.46-6.94,1.18-2.1,2.77-3.82,4.74-5.17,1.98-1.35,4.39-2.15,7.23-2.41,1.97-.18,3.64-.04,5,.43,1.36.47,2.5,1.16,3.4,2.07.91.91,1.6,1.98,2.07,3.19.47,1.22.77,2.49.89,3.82.24,2.65.14,5.25-.32,7.8-.45,2.55-1.27,4.87-2.46,6.96-1.18,2.1-2.77,3.82-4.74,5.17-1.98,1.35-4.39,2.15-7.23,2.41Zm.71-3.51c1.1-.1,2.05-.6,2.85-1.49.8-.89,1.45-2.04,1.95-3.45.5-1.4.88-2.96,1.15-4.66.26-1.71.42-3.44.47-5.2.05-1.76,0-3.44-.15-5.03s-.54-2.81-1.18-3.76c-.64-.95-1.68-1.37-3.12-1.23-1.1.1-2.05.59-2.85,1.47-.8.88-1.46,2.02-1.98,3.42-.52,1.41-.91,2.96-1.18,4.67-.26,1.71-.41,3.45-.44,5.23-.03,1.78.03,3.47.18,5.06s.53,2.81,1.18,3.76c.64.95,1.68,1.37,3.12,1.23Z"/><path class="cls-1" d="m105.02,63.27c-1.97.18-3.63-.14-4.96-.95-1.34-.81-2.37-2.01-3.11-3.59-.74-1.58-1.2-3.43-1.4-5.55-.26-2.84-.1-5.53.49-8.07.59-2.54,1.52-4.81,2.79-6.82,1.27-2.01,2.84-3.62,4.72-4.85,1.88-1.22,3.97-1.94,6.28-2.15,1.02-.09,2.01-.09,2.96.02.95.1,1.89.29,2.83.54l6.59.54c-.33,3.51-.67,7.07-1.03,10.68-.36,3.61-.74,7.3-1.16,11.09-.01.31-.03.69-.07,1.15-.03.46-.03.88,0,1.26.06.61.25,1.1.59,1.47.34.37.85.56,1.54.58-.13.7-.44,1.3-.92,1.81-.49.5-1.06.9-1.7,1.19-.64.29-1.32.47-2.04.53-1.1.1-2.07-.09-2.92-.56-.85-.48-1.41-1.24-1.7-2.28-.9,1.04-2,1.92-3.31,2.66-1.31.73-2.8,1.17-4.47,1.33Zm2.47-3.72c1.29-.12,2.32-.67,3.09-1.66.77-.99,1.33-2.18,1.68-3.57.35-1.39.58-2.7.7-3.94l1.31-14.46c-.73-.47-1.48-.8-2.24-1-.76-.2-1.47-.27-2.11-.21-1.14.1-2.12.57-2.94,1.39-.82.82-1.51,1.9-2.05,3.23-.55,1.33-.96,2.83-1.25,4.5-.29,1.67-.45,3.39-.5,5.15-.05,1.76,0,3.48.16,5.15.14,1.55.51,2.88,1.11,3.97.6,1.09,1.62,1.57,3.06,1.44Zm14.65-26.58l-7.49.23c.23-2.12.39-4.2.49-6.24.1-2.04.08-3.81-.06-5.33-.05-.49-.1-.96-.16-1.39-.06-.43-.15-.86-.26-1.27.43-.31.99-.59,1.67-.84.68-.25,1.37-.41,2.05-.47,1.1-.1,2.13.12,3.1.66s1.5,1.61,1.61,3.21c.04.46.02,1.28-.06,2.47-.08,1.19-.2,2.58-.36,4.16-.16,1.58-.34,3.19-.53,4.81Z"/><path class="cls-1" d="m131.07,60.88c-1.36.13-2.5-.15-3.4-.83-.9-.68-1.42-1.72-1.55-3.13-.05-.53-.06-1.18-.04-1.95.02-.77.08-1.68.18-2.74.09-1.06.22-2.28.38-3.65.16-1.37.34-2.93.55-4.67.2-1.74.43-3.67.67-5.8.24-2.12.5-4.44.77-6.95.18-2.2.31-4.26.38-6.2.07-1.94.05-3.57-.08-4.9-.05-.49-.11-.93-.18-1.3-.07-.38-.16-.73-.27-1.07.43-.31.98-.59,1.64-.84.67-.25,1.36-.41,2.08-.48,1.06-.1,2.08.12,3.07.64.98.52,1.55,1.58,1.7,3.17.03.34,0,.95-.06,1.81-.07.87-.16,1.9-.26,3.09-.1,1.19-.21,2.43-.32,3.7s-.23,2.47-.36,3.59c-.49,4.29-.88,7.79-1.19,10.52-.3,2.72-.55,4.88-.73,6.46-.18,1.58-.3,2.76-.36,3.53-.06.77-.1,1.31-.11,1.62-.01.31,0,.57.02.8.06.61.26,1.09.62,1.46.36.37.88.56,1.57.57-.13.7-.43,1.3-.9,1.8-.47.5-1.04.9-1.7,1.19-.66.29-1.37.47-2.13.54Z"/><path class="cls-1" d="m150.8,59.07c-2.2.2-4.15-.03-5.86-.7-1.71-.67-3.08-1.8-4.13-3.41-1.05-1.6-1.69-3.72-1.93-6.33-.22-2.39-.1-4.8.37-7.23.47-2.43,1.3-4.66,2.51-6.68,1.21-2.02,2.82-3.71,4.84-5.06,2.02-1.35,4.48-2.16,7.4-2.43,1.52-.14,2.92-.07,4.21.22,1.29.28,2.35.88,3.18,1.8.83.92,1.32,2.23,1.48,3.94.19,2.09-.26,3.92-1.36,5.52-1.1,1.59-2.69,2.88-4.78,3.85-2.09.98-4.54,1.61-7.34,1.91-.45.08-.96.14-1.53.17-.57.03-1.07.05-1.49.05.01.57.03,1.14.04,1.69.01.55.04,1.04.08,1.46.18,1.97.69,3.46,1.53,4.48.84,1.01,2.22,1.43,4.16,1.25,1.59-.15,3.03-.66,4.3-1.54,1.28-.88,2.21-2.02,2.81-3.41.54.1.93.38,1.17.84.23.46.37.93.42,1.42.11,1.25-.22,2.47-1.01,3.65-.79,1.18-1.95,2.19-3.48,3.01-1.53.83-3.39,1.34-5.59,1.55Zm-4.26-17.1c1.29-.12,2.52-.39,3.71-.83,1.18-.43,2.23-1,3.14-1.69.91-.69,1.61-1.55,2.09-2.57.48-1.02.66-2.15.55-3.41-.13-1.02-.44-1.79-.93-2.32-.49-.53-1.19-.75-2.1-.67-.99.09-1.86.48-2.62,1.16-.76.68-1.41,1.56-1.94,2.64-.53,1.08-.96,2.29-1.27,3.62-.32,1.33-.53,2.69-.63,4.07Z"/><path class="cls-1" d="m171.36,67.51c-1.29.12-2.34-.18-3.15-.89-.81-.71-1.28-1.75-1.4-3.11-.1-1.1.09-2.17.57-3.21.48-1.04,1.1-2.03,1.88-2.98.77-.95,1.55-1.8,2.32-2.56l-3.07.34c-.36-3.1-.7-5.94-1.01-8.51-.31-2.57-.63-4.95-.94-7.14-.32-2.19-.69-4.22-1.13-6.09-.34-1.57-.71-2.74-1.12-3.51-.41-.76-.98-1.32-1.7-1.68.51-.66,1.13-1.15,1.84-1.49.71-.33,1.55-.54,2.49-.63,1.44-.13,2.56.03,3.37.49.81.46,1.43,1.2,1.87,2.21.44,1.01.77,2.31.99,3.9.09.57.18,1.37.28,2.41s.22,2.3.38,3.78c.15,1.48.32,3.22.51,5.23l.5,6.03c1.3-2.11,2.44-4.3,3.44-6.57,1-2.27,1.76-4.58,2.29-6.92.53-2.34.69-4.63.49-6.87-.05-.49-.12-1.01-.23-1.56-.11-.54-.26-1.09-.47-1.65.45-.54,1.03-1,1.74-1.39.71-.39,1.5-.63,2.37-.71.8-.07,1.49.03,2.09.3.6.27,1.09.71,1.47,1.33.38.62.62,1.42.71,2.4.11,1.25.01,2.64-.31,4.16-.32,1.52-.8,3.12-1.45,4.81-.65,1.68-1.47,3.4-2.45,5.16-.99,1.75-2.1,3.5-3.33,5.24-1.24,1.74-2.56,3.44-3.98,5.1-1.08,1.17-1.91,2.28-2.5,3.33-.59,1.05-.81,2.37-.67,3.96.08.87.34,1.75.79,2.62.44.88.96,1.63,1.56,2.27-.55.7-1.26,1.25-2.14,1.66-.88.4-1.83.66-2.86.75Z"/></g></svg>